# xmcd
#
# Track frame offsets:
#	150
#	11545
#	29388
#	47277
#	62964
#	76148
#	91931
#	104541
#	121496
#	139176
#	154356
#	166447
#	178612
#	202921
#	222085
#	240398
#	254046
#	265314
#
# Disc length: 3780 seconds
#
# Revision: 1
# Processed by: cddbd v1.5.2PL0 Copyright (c) Steve Scherf et al.
# Submitted via: audiograbber 1.83.01
#
DISCID=f60ec212
DTITLE=Various Artist - Hc118
DYEAR=2005
DGENRE=Country
TTITLE0=Canyon, George - One Good Friend
TTITLE1=Lonestar - I'll Die Tryin'
TTITLE2=Lynne, Rockie - Lipstick
TTITLE3=Lines, Aaron - Lights Of My Hometown
TTITLE4=O'neal, Jamie - I Love My Life
TTITLE5=Crowell, Rodney - Say You Love Me
TTITLE6=Bamford, Gord - Life Is Good
TTITLE7=Yearwood, Trisha - Trying To Love You
TTITLE8=Bering Strait - You Make Lovin' Fun
TTITLE9=Poverty Plainsmen - Secret To My Success
TTITLE10=Haggard, Merle - America First
TTITLE11=Harmer, Sarah - I Am Aglow
TTITLE12=Cowboy Troy - If You Don't Wanna Love Me
TTITLE13=Urban, Keith - Tonight I Wanna Cry
TTITLE14=Long, Brice - Anywhere But Here
TTITLE15=Strait, George - Texas
TTITLE16=Canyon, George - Santa's On His Way
TTITLE17=O'neal, Jamie - O Holy Night
EXTD=
EXTT0=
EXTT1=
EXTT2=
EXTT3=
EXTT4=
EXTT5=
EXTT6=
EXTT7=
EXTT8=
EXTT9=
EXTT10=
EXTT11=
EXTT12=
EXTT13=
EXTT14=
EXTT15=
EXTT16=
EXTT17=
PLAYORDER=
